<svg xmlns="http://www.w3.org/2000/svg" xmlns:xlink="http://www.w3.org/1999/xlink" width="24" height="24" version="1.1" viewBox="0 0 24 24"><g fill="none" fill-rule="evenodd" stroke="none" stroke-linecap="round" stroke-linejoin="round" stroke-width="1"><g stroke="#000" stroke-width="2" transform="translate(-488.000000, -731.000000)"><g id="291" transform="translate(488.000000, 731.000000)"><path id="Combined-Shape" d="M10,9 C8.5,7.5 8,3 8,3 C8,3 7.5,7.5 6,9 C4.5,10.5 2,11 2,11 C2,11 4.5,11.5 6,13 C7.5,14.5 8,19 8,19 C8,19 8.5,14.5 10,13 C11.5,11.5 14,11 14,11 C14,11 11.5,10.5 10,9 Z"/><path id="Combined-Shape" d="M19.6666667,4.75 C18.7916667,3.8125 18.5,1 18.5,1 C18.5,1 18.2083333,3.8125 17.3333333,4.75 C16.4583333,5.6875 15,6 15,6 C15,6 16.4583333,6.3125 17.3333333,7.25 C18.2083333,8.1875 18.5,11 18.5,11 C18.5,11 18.7916667,8.1875 19.6666667,7.25 C20.5416667,6.3125 22,6 22,6 C22,6 20.5416667,5.6875 19.6666667,4.75 Z"/><path id="Combined-Shape" d="M17,17 C16.25,16.25 16,14 16,14 C16,14 15.75,16.25 15,17 C14.25,17.75 13,18 13,18 C13,18 14.25,18.25 15,19 C15.75,19.75 16,22 16,22 C16,22 16.25,19.75 17,19 C17.75,18.25 19,18 19,18 C19,18 17.75,17.75 17,17 Z"/></g></g></g></svg>