<svg xmlns="http://www.w3.org/2000/svg" xmlns:xlink="http://www.w3.org/1999/xlink" width="24" height="24" version="1.1" viewBox="0 0 24 24"><g fill="none" fill-rule="evenodd" stroke="none" stroke-width="1"><g stroke="#000" stroke-width="2"><g transform="translate(-268.000000, -203.000000) translate(268.000000, 203.000000)"><path stroke-linejoin="round" d="M2,12 C2,12 5,5 12,5 C19,5 22,12 22,12 C22,12 19,19 12,19 C5,19 2,12 2,12 Z"/><circle id="Oval-50" cx="12" cy="12" r="3"/><path stroke-linecap="round" d="M12,5 L12,3"/><path stroke-linecap="round" d="M18,6.5 L19,5"/><path stroke-linecap="round" d="M21,10 L22.5,9"/><path stroke-linecap="round" d="M1.5,10 L3,9" transform="translate(2.250000, 9.500000) scale(1, -1) translate(-2.250000, -9.500000)"/><path stroke-linecap="round" d="M5,6.5 L6,5" transform="translate(5.500000, 5.750000) scale(-1, 1) translate(-5.500000, -5.750000)"/></g></g></g></svg>